<svg width="14" height="14" viewBox="0 0 14 14" fill="none" xmlns="http://www.w3.org/2000/svg">
<path d="M3.09171 4.84167C3.20837 4.725 3.32504 4.66667 3.50004 4.66667C3.67504 4.66667 3.79171 4.725 3.90837 4.84167L7.00004 7.93333L10.0917 4.84167C10.325 4.60833 10.675 4.60833 10.9084 4.84167C11.1417 5.075 11.1417 5.425 10.9084 5.65833L7.40837 9.15833C7.17504 9.39167 6.82504 9.39167 6.59171 9.15833L3.09171 5.65833C2.85837 5.425 2.85837 5.075 3.09171 4.84167Z" fill="black"/>
<mask id="mask0" mask-type="alpha" maskUnits="userSpaceOnUse" x="2" y="4" width="10" height="6">
<path d="M3.09171 4.84167C3.20837 4.725 3.32504 4.66667 3.50004 4.66667C3.67504 4.66667 3.79171 4.725 3.90837 4.84167L7.00004 7.93333L10.0917 4.84167C10.325 4.60833 10.675 4.60833 10.9084 4.84167C11.1417 5.075 11.1417 5.425 10.9084 5.65833L7.40837 9.15833C7.17504 9.39167 6.82504 9.39167 6.59171 9.15833L3.09171 5.65833C2.85837 5.425 2.85837 5.075 3.09171 4.84167Z" fill="white"/>
</mask>
<g mask="url(#mask0)">
<path fill-rule="evenodd" clip-rule="evenodd" d="M14 14L4.17233e-07 14L-8.06686e-07 1.64115e-06L14 4.17233e-07L14 14Z" fill="white"/>
</g>
</svg>
