<svg width="1460" height="744" viewBox="0 0 1460 744" fill="none" xmlns="http://www.w3.org/2000/svg">
<rect width="1460" height="744" fill="#F8F8F8"/>
<mask id="mask0" mask-type="alpha" maskUnits="userSpaceOnUse" x="0" y="0" width="1460" height="744">
<rect width="1460" height="744" fill="white"/>
</mask>
<g mask="url(#mask0)">
<g opacity="0.06">
<path fill-rule="evenodd" clip-rule="evenodd" d="M714.531 52.5905L735.571 9.99451L756.611 52.5905L803.642 59.4353L769.625 92.5921L777.632 139.42L735.571 117.34L693.528 139.42L701.535 92.5921L667.518 59.4353L714.531 52.5905ZM882.218 127.611L847.594 145.809L854.202 107.242L826.186 79.9918L864.897 74.3614L882.218 39.3094L899.503 74.3614L938.232 79.9918L910.198 107.242L916.843 145.809L882.218 127.611ZM705.162 862.879C705.162 851.132 714.691 841.61 726.44 841.61C738.189 841.61 747.717 851.132 747.717 862.879C747.717 908.395 703.481 1036.07 644.703 1112.43C640.512 1117.88 634.203 1120.74 627.823 1120.74C623.296 1120.74 618.734 1119.3 614.867 1116.33C605.553 1109.16 603.813 1095.81 610.976 1086.5C668.61 1011.62 705.162 892.933 705.162 862.879ZM706.744 619.594C706.117 607.865 696.085 598.879 684.362 599.492C672.628 600.119 663.624 610.138 664.251 621.864C674.133 806.63 612.799 976.157 564.722 1027.5C556.693 1036.07 557.138 1049.53 565.714 1057.56C569.82 1061.4 575.039 1063.3 580.25 1063.3C585.931 1063.3 591.598 1061.04 595.787 1056.57C656.897 991.305 716.694 805.685 706.744 619.594ZM579.476 876.911C575.167 876.911 570.817 875.609 567.052 872.895C557.521 866.029 555.365 852.733 562.234 843.209C578.424 820.757 596.197 731.425 603.593 680.389C605.28 668.768 616.069 660.695 627.697 662.391C639.329 664.075 647.39 674.859 645.705 686.486C642.265 710.245 623.733 830.67 596.753 868.078C592.595 873.846 586.082 876.911 579.476 876.911ZM912.463 978.41C887.239 969.165 845.353 925.595 810.327 833.222C775.039 740.158 758.315 627.279 763.24 515.381C763.755 503.648 754.657 493.717 742.92 493.202C731.206 492.722 721.245 501.779 720.726 513.514C715.554 631.053 733.244 749.95 770.535 848.296C805.073 939.376 851.465 1001.36 897.816 1018.34C900.234 1019.23 902.705 1019.65 905.138 1019.65C913.809 1019.65 921.959 1014.31 925.117 1005.7C929.161 994.671 923.497 982.452 912.463 978.41ZM754.877 947.528C755.943 935.828 766.326 927.246 777.992 928.27C789.694 929.333 798.318 939.679 797.258 951.376C793.732 990.171 777.886 1090.43 707.065 1183.27C702.88 1188.77 696.541 1191.65 690.129 1191.65C685.632 1191.65 681.099 1190.23 677.246 1187.29C667.904 1180.17 666.104 1166.83 673.229 1157.48C737.341 1073.43 751.687 982.657 754.877 947.528ZM574.006 972.746C579.994 962.638 576.651 949.596 566.539 943.61C561.029 940.345 555.659 936.739 550.543 932.988C557.839 923.985 563.718 915.918 567.229 910.718C573.8 900.979 571.231 887.763 561.491 881.191C551.751 874.626 538.529 877.187 531.955 886.93C528.117 892.612 523.573 898.715 518.71 904.777C514.18 899.825 511.043 895.709 509.815 893.183C504.684 882.616 491.957 878.212 481.383 883.338C470.812 888.466 466.403 901.188 471.534 911.755C474.927 918.741 481.401 927.206 489.707 936.026C484.228 940.908 479.28 944.567 475.504 946.192C464.715 950.844 459.738 963.357 464.388 974.144C467.855 982.185 475.699 986.998 483.937 986.998C486.747 986.998 489.604 986.436 492.349 985.255C501.721 981.216 511.838 973.529 521.59 964.458C529.198 970.231 537.086 975.61 544.859 980.209C548.261 982.223 551.992 983.18 555.68 983.18C562.949 983.18 570.033 979.45 574.006 972.746ZM599.883 580.378L621.291 557.562L626.39 588.419L654.719 601.667L626.942 616.092L623.058 647.115L600.785 625.164L570.044 631.052L584.071 603.102L568.958 575.667L599.883 580.378ZM536.605 544.086L524.622 554.151L509.528 549.992L515.418 564.473L506.822 577.537L522.413 576.433L532.169 588.651L535.943 573.471L550.577 567.987L537.305 559.689L536.605 544.086ZM823.841 240.99L775.778 266.272L784.945 212.746L746.05 174.842L799.8 167.022L823.841 118.354L847.899 167.022L901.649 174.842L862.736 212.746L871.921 266.272L823.841 240.99ZM916.46 192.438L947.587 222.724L940.243 265.578L978.714 245.356L1017.19 265.578L1009.8 222.724L1040.95 192.438L997.95 186.182L978.714 147.229L959.46 186.182L916.46 192.438ZM893.986 241.308L919.462 292.865L976.378 301.127L935.182 341.275L944.92 397.948L893.986 371.194L843.071 397.948L852.808 341.275L811.594 301.127L868.51 292.865L893.986 241.308ZM792.01 454.279L830.464 474.501L823.101 431.665L854.246 401.361L811.228 395.105L792.01 356.17L772.756 395.105L729.737 401.361L760.901 431.665L753.52 474.501L792.01 454.279ZM929.666 154.256L936.071 138.101L926.444 123.675L943.766 124.779L954.516 111.108L958.823 127.944L975.132 133.979L960.443 143.234L959.762 160.641L946.398 149.527L929.666 154.256ZM684.227 482.992L669.206 502.11L644.89 500.546L658.438 520.767L649.436 543.363L672.851 536.757L691.571 552.287L692.51 527.98L713.09 514.971L690.246 506.563L684.227 482.992ZM905.125 441.87L891.742 430.757L875.028 435.485L881.416 419.33L871.789 404.905L889.11 406.009L899.86 392.337L904.186 409.173L920.495 415.19L905.806 424.464L905.125 441.87ZM963.97 541.066L953.22 554.738L935.898 553.634L945.526 568.059L939.12 584.214L955.852 579.486L969.216 590.581L969.897 573.193L984.586 563.919L968.277 557.902L963.97 541.066ZM411.43 482.135L450.307 462.778L456.4 419.759L486.846 450.763L529.625 443.237L509.561 481.767L529.938 520.149L487.085 512.936L456.86 544.18L450.436 501.216L411.43 482.135ZM594.344 533.826L628.803 538.316L611.427 508.213L626.355 476.86L592.375 484.091L567.12 460.189L563.493 494.744L532.955 511.36L564.727 525.491L571.077 559.641L594.344 533.826ZM799.719 520.628L809.807 530.196L823.392 527.288L817.446 539.837L824.386 551.889L810.598 550.086L801.302 560.427L798.725 546.737L786.061 541.088L798.265 534.446L799.719 520.628ZM676.641 390.076L647.262 358.06L639.715 400.84L600.176 418.872L638.556 439.278L643.507 482.444L674.745 452.25L717.358 460.879L698.288 421.853L719.678 384.022L676.641 390.076ZM842.209 588.638L877.828 575.279L866.765 611.656L890.474 641.372L852.481 642.108L831.515 673.83L819.09 637.895L782.403 627.793L812.757 604.848L811.045 566.907L842.209 588.638ZM1003.22 321.289L960.224 327.527L991.351 357.832L983.988 400.667L1022.48 380.445L1060.93 400.667L1053.59 357.832L1084.71 327.527L1041.7 321.289L1022.48 282.337L1003.22 321.289ZM984.012 410.366L1003.25 449.3L1046.25 455.556L1015.12 485.861L1022.48 528.678L984.012 508.474L945.54 528.678L952.903 485.861L921.758 455.556L964.758 449.3L984.012 410.366ZM939.236 491.672L896.236 485.416L877 446.463L857.745 485.416L814.745 491.672L845.891 521.958L838.509 564.812L877 544.59L915.471 564.812L908.108 521.958L939.236 491.672ZM692.959 270.191L677.754 229.49L635.62 218.892L669.674 191.899L666.691 148.567L702.899 172.56L743.23 156.35L731.56 198.192L759.447 231.514L716.024 233.372L692.959 270.191ZM754.746 295.362L735.51 256.428L716.274 295.362L673.256 301.618L704.401 331.923L697.038 374.74L735.51 354.536L773.982 374.74L766.619 331.923L797.746 301.618L754.746 295.362ZM533.01 217.252L571.151 270.079L589.908 207.684L651.96 187.739L598.376 150.644L598.578 85.4897L546.706 124.939L484.764 104.626L506.319 166.137L467.829 218.724L533.01 217.252ZM416.264 264.001L469.094 276.66L509.462 240.32L513.751 294.435L560.8 321.611L510.603 342.403L499.337 395.524L464.032 354.235L410.006 359.92L438.353 313.607L416.264 264.001ZM568.64 381.755L555.203 354.523L541.728 381.755L511.613 386.153L533.408 407.387L528.272 437.342L555.203 423.174L582.114 437.342L576.979 407.387L598.773 386.153L568.64 381.755ZM634.438 272.011L677.88 271.661L651.704 306.345L665.436 347.543L624.387 333.375L589.413 359.208L590.204 315.747L554.825 290.484L596.389 277.825L609.514 236.407L634.438 272.011ZM618.199 70.8065L631.268 88.1577L637.085 67.2553L657.664 60.1897L639.533 48.1745L639.165 26.4625L622.138 39.9313L601.374 33.6017L608.958 53.9521L596.496 71.7449L618.199 70.8065ZM659.189 119.075L662.134 136.187L646.745 128.11L631.338 136.187L634.283 119.075L621.821 106.931L639.051 104.447L646.745 88.8624L654.439 104.447L671.651 106.931L659.189 119.075Z" fill="#312783"/>
<mask id="mask1" mask-type="alpha" maskUnits="userSpaceOnUse" x="410" y="9" width="675" height="1183">
<path fill-rule="evenodd" clip-rule="evenodd" d="M714.531 52.5905L735.571 9.99451L756.611 52.5905L803.642 59.4353L769.625 92.5921L777.632 139.42L735.571 117.34L693.528 139.42L701.535 92.5921L667.518 59.4353L714.531 52.5905ZM882.218 127.611L847.594 145.809L854.202 107.242L826.186 79.9918L864.897 74.3614L882.218 39.3094L899.503 74.3614L938.232 79.9918L910.198 107.242L916.843 145.809L882.218 127.611ZM705.162 862.879C705.162 851.132 714.691 841.61 726.44 841.61C738.189 841.61 747.717 851.132 747.717 862.879C747.717 908.395 703.481 1036.07 644.703 1112.43C640.512 1117.88 634.203 1120.74 627.823 1120.74C623.296 1120.74 618.734 1119.3 614.867 1116.33C605.553 1109.16 603.813 1095.81 610.976 1086.5C668.61 1011.62 705.162 892.933 705.162 862.879ZM706.744 619.594C706.117 607.865 696.085 598.879 684.362 599.492C672.628 600.119 663.624 610.138 664.251 621.864C674.133 806.63 612.799 976.157 564.722 1027.5C556.693 1036.07 557.138 1049.53 565.714 1057.56C569.82 1061.4 575.039 1063.3 580.25 1063.3C585.931 1063.3 591.598 1061.04 595.787 1056.57C656.897 991.305 716.694 805.685 706.744 619.594ZM579.476 876.911C575.167 876.911 570.817 875.609 567.052 872.895C557.521 866.029 555.365 852.733 562.234 843.209C578.424 820.757 596.197 731.425 603.593 680.389C605.28 668.768 616.069 660.695 627.697 662.391C639.329 664.075 647.39 674.859 645.705 686.486C642.265 710.245 623.733 830.67 596.753 868.078C592.595 873.846 586.082 876.911 579.476 876.911ZM912.463 978.41C887.239 969.165 845.353 925.595 810.327 833.222C775.039 740.158 758.315 627.279 763.24 515.381C763.755 503.648 754.657 493.717 742.92 493.202C731.206 492.722 721.245 501.779 720.726 513.514C715.554 631.053 733.244 749.95 770.535 848.296C805.073 939.376 851.465 1001.36 897.816 1018.34C900.234 1019.23 902.705 1019.65 905.138 1019.65C913.809 1019.65 921.959 1014.31 925.117 1005.7C929.161 994.671 923.497 982.452 912.463 978.41ZM754.877 947.528C755.943 935.828 766.326 927.246 777.992 928.27C789.694 929.333 798.318 939.679 797.258 951.376C793.732 990.171 777.886 1090.43 707.065 1183.27C702.88 1188.77 696.541 1191.65 690.129 1191.65C685.632 1191.65 681.099 1190.23 677.246 1187.29C667.904 1180.17 666.104 1166.83 673.229 1157.48C737.341 1073.43 751.687 982.657 754.877 947.528ZM574.006 972.746C579.994 962.638 576.651 949.596 566.539 943.61C561.029 940.345 555.659 936.739 550.543 932.988C557.839 923.985 563.718 915.918 567.229 910.718C573.8 900.979 571.231 887.763 561.491 881.191C551.751 874.626 538.529 877.187 531.955 886.93C528.117 892.612 523.573 898.715 518.71 904.777C514.18 899.825 511.043 895.709 509.815 893.183C504.684 882.616 491.957 878.212 481.383 883.338C470.812 888.466 466.403 901.188 471.534 911.755C474.927 918.741 481.401 927.206 489.707 936.026C484.228 940.908 479.28 944.567 475.504 946.192C464.715 950.844 459.738 963.357 464.388 974.144C467.855 982.185 475.699 986.998 483.937 986.998C486.747 986.998 489.604 986.436 492.349 985.255C501.721 981.216 511.838 973.529 521.59 964.458C529.198 970.231 537.086 975.61 544.859 980.209C548.261 982.223 551.992 983.18 555.68 983.18C562.949 983.18 570.033 979.45 574.006 972.746ZM599.883 580.378L621.291 557.562L626.39 588.419L654.719 601.667L626.942 616.092L623.058 647.115L600.785 625.164L570.044 631.052L584.071 603.102L568.958 575.667L599.883 580.378ZM536.605 544.086L524.622 554.151L509.528 549.992L515.418 564.473L506.822 577.537L522.413 576.433L532.169 588.651L535.943 573.471L550.577 567.987L537.305 559.689L536.605 544.086ZM823.841 240.99L775.778 266.272L784.945 212.746L746.05 174.842L799.8 167.022L823.841 118.354L847.899 167.022L901.649 174.842L862.736 212.746L871.921 266.272L823.841 240.99ZM916.46 192.438L947.587 222.724L940.243 265.578L978.714 245.356L1017.19 265.578L1009.8 222.724L1040.95 192.438L997.95 186.182L978.714 147.229L959.46 186.182L916.46 192.438ZM893.986 241.308L919.462 292.865L976.378 301.127L935.182 341.275L944.92 397.948L893.986 371.194L843.071 397.948L852.808 341.275L811.594 301.127L868.51 292.865L893.986 241.308ZM792.01 454.279L830.464 474.501L823.101 431.665L854.246 401.361L811.228 395.105L792.01 356.17L772.756 395.105L729.737 401.361L760.901 431.665L753.52 474.501L792.01 454.279ZM929.666 154.256L936.071 138.101L926.444 123.675L943.766 124.779L954.516 111.108L958.823 127.944L975.132 133.979L960.443 143.234L959.762 160.641L946.398 149.527L929.666 154.256ZM684.227 482.992L669.206 502.11L644.89 500.546L658.438 520.767L649.436 543.363L672.851 536.757L691.571 552.287L692.51 527.98L713.09 514.971L690.246 506.563L684.227 482.992ZM905.125 441.87L891.742 430.757L875.028 435.485L881.416 419.33L871.789 404.905L889.11 406.009L899.86 392.337L904.186 409.173L920.495 415.19L905.806 424.464L905.125 441.87ZM963.97 541.066L953.22 554.738L935.898 553.634L945.526 568.059L939.12 584.214L955.852 579.486L969.216 590.581L969.897 573.193L984.586 563.919L968.277 557.902L963.97 541.066ZM411.43 482.135L450.307 462.778L456.4 419.759L486.846 450.763L529.625 443.237L509.561 481.767L529.938 520.149L487.085 512.936L456.86 544.18L450.436 501.216L411.43 482.135ZM594.344 533.826L628.803 538.316L611.427 508.213L626.355 476.86L592.375 484.091L567.12 460.189L563.493 494.744L532.955 511.36L564.727 525.491L571.077 559.641L594.344 533.826ZM799.719 520.628L809.807 530.196L823.392 527.288L817.446 539.837L824.386 551.889L810.598 550.086L801.302 560.427L798.725 546.737L786.061 541.088L798.265 534.446L799.719 520.628ZM676.641 390.076L647.262 358.06L639.715 400.84L600.176 418.872L638.556 439.278L643.507 482.444L674.745 452.25L717.358 460.879L698.288 421.853L719.678 384.022L676.641 390.076ZM842.209 588.638L877.828 575.279L866.765 611.656L890.474 641.372L852.481 642.108L831.515 673.83L819.09 637.895L782.403 627.793L812.757 604.848L811.045 566.907L842.209 588.638ZM1003.22 321.289L960.224 327.527L991.351 357.832L983.988 400.667L1022.48 380.445L1060.93 400.667L1053.59 357.832L1084.71 327.527L1041.7 321.289L1022.48 282.337L1003.22 321.289ZM984.012 410.366L1003.25 449.3L1046.25 455.556L1015.12 485.861L1022.48 528.678L984.012 508.474L945.54 528.678L952.903 485.861L921.758 455.556L964.758 449.3L984.012 410.366ZM939.236 491.672L896.236 485.416L877 446.463L857.745 485.416L814.745 491.672L845.891 521.958L838.509 564.812L877 544.59L915.471 564.812L908.108 521.958L939.236 491.672ZM692.959 270.191L677.754 229.49L635.62 218.892L669.674 191.899L666.691 148.567L702.899 172.56L743.23 156.35L731.56 198.192L759.447 231.514L716.024 233.372L692.959 270.191ZM754.746 295.362L735.51 256.428L716.274 295.362L673.256 301.618L704.401 331.923L697.038 374.74L735.51 354.536L773.982 374.74L766.619 331.923L797.746 301.618L754.746 295.362ZM533.01 217.252L571.151 270.079L589.908 207.684L651.96 187.739L598.376 150.644L598.578 85.4897L546.706 124.939L484.764 104.626L506.319 166.137L467.829 218.724L533.01 217.252ZM416.264 264.001L469.094 276.66L509.462 240.32L513.751 294.435L560.8 321.611L510.603 342.403L499.337 395.524L464.032 354.235L410.006 359.92L438.353 313.607L416.264 264.001ZM568.64 381.755L555.203 354.523L541.728 381.755L511.613 386.153L533.408 407.387L528.272 437.342L555.203 423.174L582.114 437.342L576.979 407.387L598.773 386.153L568.64 381.755ZM634.438 272.011L677.88 271.661L651.704 306.345L665.436 347.543L624.387 333.375L589.413 359.208L590.204 315.747L554.825 290.484L596.389 277.825L609.514 236.407L634.438 272.011ZM618.199 70.8065L631.268 88.1577L637.085 67.2553L657.664 60.1897L639.533 48.1745L639.165 26.4625L622.138 39.9313L601.374 33.6017L608.958 53.9521L596.496 71.7449L618.199 70.8065ZM659.189 119.075L662.134 136.187L646.745 128.11L631.338 136.187L634.283 119.075L621.821 106.931L639.051 104.447L646.745 88.8624L654.439 104.447L671.651 106.931L659.189 119.075Z" fill="white"/>
</mask>
<g mask="url(#mask1)">
<path fill-rule="evenodd" clip-rule="evenodd" d="M410 10H1092V1206H410V10Z" fill="black"/>
</g>
</g>
</g>
</svg>
